<!DOCTYPE svg PUBLIC "-//W3C//DTD SVG 1.1//EN" "http://www.w3.org/Graphics/SVG/1.1/DTD/svg11.dtd">

<!-- Uploaded to: SVG Repo, www.svgrepo.com, Transformed by: SVG Repo Mixer Tools -->
<svg height="720px" width="1000px" version="1.1" id="Layer_1" xmlns="http://www.w3.org/2000/svg" xmlns:xlink="http://www.w3.org/1999/xlink" viewBox="0 0 512 512" xml:space="preserve" fill="#000000">

<g id="SVGRepo_bgCarrier" stroke-width="0"/>

<g id="SVGRepo_tracerCarrier" stroke-linecap="round" stroke-linejoin="round"/>

<g id="SVGRepo_iconCarrier"> <path style="fill:#E4E7ED;" d="M256,0c141.346,0,256,114.654,256,256S397.346,512,256,512S0,397.346,0,256S114.654,0,256,0z"/> <path style="fill:#6B7F9E;" d="M76.918,348.696h161.463c3.419,0,6.311,2.761,6.311,6.048v21.958H70.607v-21.958 C70.607,351.326,73.5,348.696,76.918,348.696z"/> <path style="fill:#b0ce82;" d="M66.005,367.236h183.289c3.945,0,7.1,3.156,7.1,6.969v24.982H58.773v-24.982 c0-3.813,3.156-6.969,7.1-6.969H66.005z"/> <path style="fill:#5D718F;" d="M245.876,149.629l89.672,72.448c0,0,25.376,36.684,47.729,56.801 c22.484,20.117,59.562,36.684,59.562,36.684l0.131,3.156c0.263,5.917,3.287,8.678,9.204,8.415c3.813-0.132,9.598-3.55,11.702-5.259 c2.104-1.709,2.761-1.841,5.391-6.574c2.761-4.733,3.813-8.546,3.287-12.36c-0.657-5.785-3.945-8.284-9.73-7.758l-3.156,0.394 c0,0-22.221-34.054-45.625-52.988s-63.638-38.262-63.638-38.262l-84.807-78.233l-19.986,23.536H245.876z"/> <path style="fill:#b0ce82;" d="M170.141,118.993L170.141,118.993c1.841-2.104,5.128-2.235,7.1-0.394l52.857,48.255 c2.104,1.841,2.235,5.128,0.394,7.1l0,0c-1.841,2.104-5.128,2.235-7.1,0.394l-52.857-48.255 C168.431,124.253,168.3,120.966,170.141,118.993z M228.783,51.542L228.783,51.542c1.841-2.104,5.128-2.235,7.1-0.263l52.857,48.255 c2.104,1.841,2.235,5.128,0.394,7.1l0,0c-1.841,2.104-5.128,2.235-7.1,0.263l-52.857-48.255 C227.073,56.801,226.942,53.514,228.783,51.542z"/> <g> <path style="fill:#6B7F9E;" d="M157.518,130.301L157.518,130.301c-4.47,4.865-4.076,12.491,0.789,16.83l45.888,41.943 c4.865,4.47,12.491,4.076,16.83-0.789l0,0c4.47-4.865,4.076-12.491-0.789-16.83l-45.888-41.943 C169.483,125.042,161.857,125.436,157.518,130.301z"/> <path style="fill:#6B7F9E;" d="M240.353,39.577L240.353,39.577c-4.47,4.865-4.076,12.491,0.789,16.83L287.03,98.35 c4.865,4.47,12.491,4.076,16.83-0.789l0,0c4.47-4.865,4.076-12.491-0.789-16.83l-45.888-41.944 C252.318,34.317,244.692,34.712,240.353,39.577z"/> <path style="fill:#6B7F9E;" d="M179.608,120.703c0,0,6.574-48.649,53.383-58.511l22.615,20.512l22.615,20.643 c0,0-6.574,48.649-53.383,58.511l-22.615-20.512L179.608,120.703z"/> <path style="fill:#6B7F9E;" d="M56.012,392.086h203.406c0.657,0,1.052,0.526,1.052,1.052v4.865c0,0.526-0.526,1.052-1.052,1.052 H56.012c-0.657,0-1.052-0.526-1.052-1.052v-4.865C54.96,392.612,55.486,392.086,56.012,392.086z"/> </g> <polygon style="fill:#FF7069;" points="158.57,169.615 170.141,204.064 194.597,177.241 191.178,213.399 224.444,198.936 206.562,230.492 242.852,230.755 213.662,252.45 246.665,267.439 211.295,275.328 235.357,302.545 199.725,295.314 210.638,329.894 181.054,308.725 176.978,344.883 158.57,313.59 140.162,344.883 136.086,308.725 106.502,329.894 117.416,295.314 81.783,302.545 105.976,275.328 70.476,267.439 103.478,252.45 74.289,230.755 110.578,230.492 92.696,198.936 126.093,213.399 122.543,177.241 147.131,204.064 "/> <path style="fill:#FFFFFF;" d="M122.149,280.851l3.287-11.308c1.052-3.55,2.104-6.18,3.156-7.889 c1.052-1.709,2.63-2.893,4.602-3.419c2.104-0.657,4.996-0.394,8.809,0.657c2.498,0.789,4.207,1.578,4.996,2.761 c0.789,1.052,1.183,2.893,0.92,5.391c1.315-2.498,2.893-3.945,4.602-4.47c1.709-0.526,3.945-0.394,6.837,0.394l4.076,1.183 c3.024,0.92,4.996,1.841,6.311,2.893c1.315,1.052,1.841,2.498,1.972,4.076c0.131,1.578-0.526,4.733-1.841,9.335l-3.813,13.148 l-43.916-12.622V280.851z M132.931,271.515l9.73,2.761c0.131-0.526,0.131-0.789,0.263-1.183c0.263-1.052,0.263-1.972-0.131-2.367 c-0.526-0.394-1.972-1.052-4.602-1.841c-1.446-0.394-2.367-0.526-3.024-0.394c-0.657,0-1.052,0.263-1.315,0.657 c-0.263,0.394-0.526,1.052-0.92,2.235V271.515z M149.498,276.249l12.36,3.55c0.394-1.578,0.394-2.761,0.131-3.156 c-0.263-0.526-1.315-1.052-3.156-1.578l-4.076-1.183c-1.841-0.526-3.156-0.657-3.55-0.394c-0.526,0.263-1.052,1.315-1.578,2.893 L149.498,276.249z M134.245,238.776l43.916,12.622l-3.287,11.439l-43.916-12.623L134.245,238.776z M135.56,234.174l2.498-8.546 c1.578-5.522,2.893-9.204,3.945-10.913c1.052-1.841,2.367-3.024,3.813-3.682c1.446-0.657,2.893-0.92,4.339-0.789 c1.578,0.131,4.339,0.789,8.546,1.972l15.384,4.47c3.945,1.183,6.443,2.104,7.758,2.761c1.183,0.789,2.104,1.709,2.63,2.893 c0.526,1.052,0.657,2.367,0.526,3.813c-0.131,1.446-0.526,3.55-1.315,6.311l-4.076,14.332l-43.916-12.622H135.56z M146.342,224.838 l28.927,8.284c0.526-1.578,0.394-2.761-0.131-3.287s-2.235-1.315-5.259-2.104l-17.093-4.865c-1.972-0.526-3.287-0.92-3.813-0.92 c-0.657,0-1.052,0.131-1.446,0.526s-0.789,1.183-1.052,2.367H146.342z"/> </g>

</svg>