<!DOCTYPE svg PUBLIC "-//W3C//DTD SVG 1.1//EN" "http://www.w3.org/Graphics/SVG/1.1/DTD/svg11.dtd">
<!-- Uploaded to: SVG Repo, www.svgrepo.com, Transformed by: SVG Repo Mixer Tools -->
<svg width="600px" height="700px" viewBox="-10 0 90 72" id="emoji" xmlns="http://www.w3.org/2000/svg" fill="#000000">
  <!-- Define the grid pattern -->
  <defs>
    <pattern id="gridPattern" x="0" y="0" width="10" height="10" patternUnits="userSpaceOnUse">
      <!-- Horizontal line -->
      <path d="M 0 5 H 10" stroke="#000000" stroke-width="0.5"/>
      <!-- Vertical line -->
      <path d="M 5 0 V 10" stroke="#000000" stroke-width="0.5"/>
    </pattern>
  </defs>
  <!-- Light green background with grid -->
  <rect x="-10" y="0" width="90" height="72" style="fill:#90EE90;"/>
  <rect x="-10" y="0" width="90" height="72" style="fill:url(#gridPattern);"/>
  <g id="SVGRepo_bgCarrier" stroke-width="0"/>
  <g id="SVGRepo_tracerCarrier" stroke-linecap="round" stroke-linejoin="round"/>
  <g id="SVGRepo_iconCarrier">
    <g id="color">
      <path fill="#e61e1e" stroke="none" d="M31.3882,26.7177c0,0,9.2367-1.8188,8.4221-9.1964c-1.3538-12.261-1.4678-10.4237-1.4678-10.4237 l-5.5293,1.0104C32.8133,8.1081,35.9998,21.7018,31.3882,26.7177z"/>
      <path fill="#e61e1e" stroke="none" stroke-linecap="round" stroke-linejoin="round" stroke-miterlimit="10" stroke-width="2" d="M34.5417,7.0359c-8.1462,0-14.75,7.496-14.75,16.7427v16.388h29.5"/>
      <rect x="26.8333" y="44.5" width="4" height="22.095" fill="#d0cfce" stroke="none" stroke-linecap="round" stroke-linejoin="round" stroke-miterlimit="10" stroke-width="2"/>
      <rect x="41.3333" y="44.5" width="4" height="16.4792" fill="#d0cfce" stroke="none" stroke-linecap="round" stroke-linejoin="round" stroke-miterlimit="10" stroke-width="2"/>
      <path fill="#db0000" stroke="none" d="M34.5417,7.5625c0,0,15.3232,0.5495,15.9047,13.875c0.9664,22.1458,0.0665,18.9191,0.0665,18.9191 l-9.3254-0.19C41.1875,40.1667,42.6247,15.125,34.5417,7.5625z"/>
      <rect x="43.3333" y="40.7917" width="11.8333" height="3.0833" fill="#db0000" stroke="none"/>
      <rect x="16.3353" y="40.7917" width="26.998" height="3.0833" fill="#e61e1e" stroke="none"/>
    </g>
    <g id="hair"/>
    <g id="skin"/>
    <g id="skin-shadow"/>
    <g id="line">
      <path fill="none" stroke="#000000" stroke-linecap="round" stroke-linejoin="round" stroke-miterlimit="10" stroke-width="2" d="M34.5417,7.0359c-8.1462,0-14.75,7.496-14.75,16.7427v16.388h29.5"/>
      <rect x="26.8333" y="44.5" width="4" height="22.095" fill="none" stroke="#000000" stroke-linecap="round" stroke-linejoin="round" stroke-miterlimit="10" stroke-width="2"/>
      <rect x="41.3333" y="44.5" width="4" height="16.4792" fill="none" stroke="#000000" stroke-linecap="round" stroke-linejoin="round" stroke-miterlimit="10" stroke-width="2"/>
      <path fill="none" stroke="#000000" stroke-linecap="round" stroke-linejoin="round" stroke-miterlimit="10" stroke-width="2" d="M25.8125,19.0625"/>
      <path fill="none" stroke="#000000" stroke-linecap="round" stroke-linejoin="round" stroke-miterlimit="10" stroke-width="2" d="M35.2497,7.0359c8.1462,0,14.75,7.496,14.75,16.7427v7.388"/>
      <polygon fill="none" stroke="#000000" stroke-linecap="round" stroke-linejoin="round" stroke-miterlimit="10" stroke-width="2" points="16,44.5 45.5309,44.5 45.9063,44.5 56,44.5 56,40.1667 45.9063,40.1667 45.4999,40.1667 16,40.1667"/>
    </g>
  </g>
</svg>